<?xml version="1.0" encoding="utf-8"?>
<!-- Generator: Adobe Illustrator 25.2.0, SVG Export Plug-In . SVG Version: 6.00 Build 0)  -->
<svg version="1.1" id="Layer_1" xmlns="http://www.w3.org/2000/svg" xmlns:xlink="http://www.w3.org/1999/xlink" x="0px" y="0px"
	 viewBox="0 0 120.2 61.5" style="enable-background:new 0 0 120.2 61.5;" xml:space="preserve">
<style type="text/css">
	.st0{fill:#1A1A1A;}
</style>
<path class="st0" d="M97.8,22.5c-0.3-0.6-1-1.1-1.7-1.1H84.3l5.7-7c0.6-0.8,0.5-2-0.3-2.6c-0.3-0.3-0.7-0.4-1.2-0.4H44.3
	c-0.6,0-1.1,0.3-1.4,0.7L22.6,37c-0.6,0.8-0.5,2,0.3,2.6c0.3,0.3,0.7,0.4,1.2,0.4h11.8l-5.7,7c-0.6,0.8-0.5,2,0.3,2.6
	c0.3,0.3,0.7,0.4,1.2,0.4h44.2c0.6,0,1.1-0.3,1.4-0.7l20.3-25C98,23.9,98,23.1,97.8,22.5z M27.9,36.4l17.3-21.3h39.5l-5.2,6.4H51.9
	c-0.6,0-1.1,0.2-1.4,0.7L38.9,36.4H27.9z M76.5,25.1l-9.1,11.2H43.6l9.1-11.2H76.5z M74.9,46.4H35.5l5.2-6.4h27.6
	c0.6,0,1.1-0.2,1.4-0.7l11.6-14.3h10.9L74.9,46.4z"/>
</svg>
